<svg width="17" height="17" viewBox="0 0 17 17" fill="none" xmlns="http://www.w3.org/2000/svg">
<path d="M8.04999 1.6123C4.18436 1.6123 1.04999 4.82793 1.04999 8.79043C1.04999 11.9623 3.05624 14.6498 5.83749 15.5998C5.8765 15.6083 5.91632 15.6125 5.95624 15.6123C6.21561 15.6123 6.31561 15.4217 6.31561 15.2561C6.31561 15.0842 6.30936 14.6342 6.30624 14.0342C6.07469 14.0885 5.83781 14.1168 5.59999 14.1186C4.25311 14.1186 3.94686 13.0717 3.94686 13.0717C3.62811 12.2436 3.16874 12.0217 3.16874 12.0217C2.55936 11.5936 3.16561 11.5811 3.21249 11.5811H3.21561C3.91874 11.6436 4.28749 12.3248 4.28749 12.3248C4.63749 12.9373 5.10624 13.1092 5.52499 13.1092C5.80187 13.1036 6.07448 13.0398 6.32499 12.9217C6.38749 12.4592 6.56874 12.1436 6.76874 11.9623C5.21561 11.7811 3.58124 11.1654 3.58124 8.41543C3.58124 7.63105 3.85311 6.99043 4.29999 6.49043C4.22811 6.30918 3.98749 5.57793 4.36874 4.59043C4.41988 4.57819 4.47244 4.57294 4.52499 4.5748C4.77811 4.5748 5.34999 4.67168 6.29374 5.32793C7.44047 5.00709 8.65326 5.00709 9.79999 5.32793C10.7437 4.67168 11.3156 4.5748 11.5687 4.5748C11.6213 4.57294 11.6738 4.57819 11.725 4.59043C12.1062 5.57793 11.8656 6.30918 11.7937 6.49043C12.2406 6.99356 12.5125 7.63418 12.5125 8.41543C12.5125 11.1717 10.875 11.7779 9.31561 11.9561C9.56561 12.1779 9.79061 12.6154 9.79061 13.2842C9.79061 14.2436 9.78124 15.0186 9.78124 15.2529C9.78124 15.4217 9.87811 15.6123 10.1375 15.6123C10.1795 15.6125 10.2214 15.6083 10.2625 15.5998C13.0469 14.6498 15.05 11.9592 15.05 8.79043C15.05 4.82793 11.9156 1.6123 8.04999 1.6123Z" fill="#81E6D9"/>
</svg>
