<svg width="17" height="17" viewBox="0 0 17 17" fill="none" xmlns="http://www.w3.org/2000/svg">
<path d="M14.9977 0.477051C15.4692 0.477051 15.9214 0.664352 16.2548 0.99775C16.5882 1.33115 16.7755 1.78333 16.7755 2.25483V14.6993C16.7755 15.1708 16.5882 15.623 16.2548 15.9564C15.9214 16.2897 15.4692 16.4771 14.9977 16.4771H2.55324C2.08174 16.4771 1.62956 16.2897 1.29616 15.9564C0.96276 15.623 0.775459 15.1708 0.775459 14.6993V2.25483C0.775459 1.78333 0.96276 1.33115 1.29616 0.99775C1.62956 0.664352 2.08174 0.477051 2.55324 0.477051H14.9977ZM14.5532 14.2548V9.54372C14.5532 8.77518 14.2479 8.03812 13.7045 7.49468C13.1611 6.95124 12.424 6.64594 11.6555 6.64594C10.8999 6.64594 10.0199 7.10816 9.59324 7.8015V6.81483H7.11324V14.2548H9.59324V9.87261C9.59324 9.18816 10.1443 8.62816 10.8288 8.62816C11.1588 8.62816 11.4754 8.75927 11.7087 8.99265C11.9421 9.22603 12.0732 9.54256 12.0732 9.87261V14.2548H14.5532ZM4.22435 5.41927C4.6204 5.41927 5.00024 5.26194 5.28029 4.98189C5.56035 4.70183 5.71768 4.322 5.71768 3.92594C5.71768 3.09927 5.05101 2.42372 4.22435 2.42372C3.82593 2.42372 3.44384 2.58199 3.16212 2.86371C2.8804 3.14543 2.72213 3.52753 2.72213 3.92594C2.72213 4.75261 3.39768 5.41927 4.22435 5.41927ZM5.4599 14.2548V6.81483H2.99768V14.2548H5.4599Z" fill="#81E6D9"/>
</svg>
